<?xml version="1.0" standalone="no"?>
<!DOCTYPE svg PUBLIC "-//W3C//DTD SVG 20010904//EN"
 "http://www.w3.org/TR/2001/REC-SVG-20010904/DTD/svg10.dtd">
<svg version="1.0" xmlns="http://www.w3.org/2000/svg"
 width="640.000000pt" height="640.000000pt" viewBox="0 0 640.000000 640.000000"
 preserveAspectRatio="xMidYMid meet">

<g transform="translate(0.000000,640.000000) scale(0.100000,-0.100000)"
fill="#000000" stroke="none">
<path d="M0 3200 l0 -3200 3200 0 3200 0 0 1600 0 1600 -80 0 -80 0 0 40 0 40
-40 0 c-40 0 -40 0 -40 39 0 22 5 41 13 44 8 3 5 11 -10 24 -13 11 -23 27 -23
34 0 8 -9 21 -20 29 -11 8 -20 20 -20 28 0 31 -28 42 -104 42 l-76 0 0 86 c0
88 -10 114 -44 114 -9 0 -16 5 -16 10 0 6 -13 10 -30 10 -16 0 -30 5 -30 10 0
6 -9 10 -20 10 -13 0 -20 7 -20 20 0 13 -7 20 -20 20 -11 0 -20 5 -20 10 0 6
-13 10 -30 10 -16 0 -30 5 -30 10 0 6 5 10 10 10 6 0 10 18 10 40 l0 40 -40 0
-40 0 0 40 0 40 -80 0 -80 0 0 80 0 80 -80 0 -80 0 0 40 0 40 -40 0 c-40 0
-40 0 -40 39 0 22 5 41 13 44 8 3 5 11 -10 24 -13 11 -23 27 -23 34 0 8 -9 21
-20 29 -11 8 -20 20 -20 27 0 13 -83 103 -95 103 -3 0 -5 -13 -5 -30 0 -20 -5
-30 -15 -30 -20 0 -65 45 -65 65 0 11 -11 15 -40 15 l-40 0 0 80 0 80 -36 0
c-35 0 -64 18 -64 40 0 17 -26 40 -44 40 -12 0 -16 10 -16 40 l0 40 -40 0 -40
0 0 40 0 40 -80 0 -80 0 0 40 0 40 -40 0 -40 0 0 40 0 40 -50 0 c-43 0 -50 3
-50 20 0 11 -4 20 -10 20 -5 0 -10 9 -10 20 0 11 -4 20 -10 20 -5 0 -10 9 -10
20 0 11 -4 20 -10 20 -5 0 -10 14 -10 30 0 17 -4 30 -10 30 -5 0 -10 9 -10 20
0 11 -4 20 -10 20 -5 0 -10 14 -10 30 0 17 -4 30 -10 30 -14 0 -12 38 2 42 9
3 8 9 -4 21 -22 22 -28 21 -28 -3 0 -17 -7 -20 -40 -20 l-40 0 0 40 0 40 -80
0 -80 0 0 40 c0 33 -3 40 -20 40 -18 0 -20 7 -20 86 0 98 -9 114 -64 114 -20
0 -36 5 -36 10 0 6 -13 10 -30 10 -16 0 -30 5 -30 10 0 6 -27 10 -60 10 l-60
0 0 80 0 80 -50 0 c-27 0 -50 5 -50 10 0 6 -9 10 -20 10 -11 0 -20 5 -20 10 0
6 -9 10 -20 10 -11 0 -20 5 -20 10 0 6 -9 10 -20 10 -11 0 -20 5 -20 10 0 6
14 10 30 10 l30 0 0 80 0 80 -120 0 -120 0 0 80 0 80 -1600 0 -1600 0 0 -3200z"/>
<path d="M6240 3370 c0 -5 18 -10 40 -10 22 0 40 5 40 10 0 6 -18 10 -40 10
-22 0 -40 -4 -40 -10z"/>
</g>
</svg>
