<svg width="493.578" height="493.578" xmlns="http://www.w3.org/2000/svg" fill="#000000" version="1.1" xml:space="preserve">
 <g>
  <title>Layer 1</title>
  <g transform="rotate(-180 246.789 246.789)" id="svg_1">
   <path d="m487.267,225.981c0,-17.365 -13.999,-31.518 -31.518,-31.518l-261.248,0l110.849,-110.848c12.24,-12.24 12.24,-32.207 0,-44.676l-29.758,-29.759c-12.24,-12.24 -32.207,-12.24 -44.676,0l-215.348,215.347c-6.12,6.12 -9.256,14.153 -9.256,22.262c0,8.032 3.136,16.142 9.256,22.262l215.348,215.348c12.24,12.239 32.207,12.239 44.676,0l29.758,-29.759c12.24,-12.24 12.24,-32.207 0,-44.676l-110.849,-110.466l261.094,0c17.366,0 31.519,-14.153 31.519,-31.519l0.153,-41.998z" id="svg_2"/>
  </g>
 </g>

</svg>